<svg viewBox="0 0 185 185" xmlns:xlink="http://www.w3.org/1999/xlink" width="185" xmlns:ev="http://www.w3.org/2001/xml-events" xmlns="http://www.w3.org/2000/svg" height="185"><defs/><g transform="translate(5.5,5.5)" id="page1"><rect x="0" fill="#ffffff" width="175" height="175" y="0"/><path stroke-width="1" transform="translate(1.020200,1.435200)" fill="#409eff" stroke="#409eff" d="M166.9,86.3C186.1,49.0,152.2,40.9,152.2,40.9C151.0,-0.7,109.6,12.9,109.6,12.9C88.0,-16.1,62.5,12.9,62.5,12.9C62.5,12.9,22.4,-1.3,23.7,40.9C23.7,40.9,-14.7,48.6,7.4,86.3C7.4,86.3,-16.6,117.2,21.7,131.6C21.7,131.6,21.1,169.4,60.0,159.6C60.0,159.6,80.0,189.7,109.6,159.6C109.6,159.6,148.5,173.0,148.5,131.6C148.5,131.6,187.7,126.4,166.9,86.3z" fill-rule="nonzero" id="shape1"/><path stroke-width="1" transform="translate(9.846800,10.261800)" fill="#ffffff" stroke="#409eff" d="M149.8,77.5C167.1,44.0,136.7,36.7,136.7,36.7C135.6,-0.6,98.4,11.6,98.4,11.6C79.0,-14.5,56.1,11.6,56.1,11.6C56.1,11.6,20.1,-1.2,21.3,36.7C21.3,36.7,-13.2,43.7,6.7,77.5C6.7,77.5,-14.9,105.2,19.5,118.2C19.5,118.2,18.9,152.1,53.9,143.3C53.9,143.3,71.8,170.3,98.4,143.3C98.4,143.3,133.3,155.3,133.3,118.2C133.3,118.2,168.6,113.5,149.8,77.5z" fill-rule="nonzero" id="shape2"/><path stroke-width="1" transform="translate(46.859300,47.353600)" fill="#409eff" stroke="#409eff" d="M73.6,43.5L36.3,43.5C34.7,43.5,33.9,44.2,33.9,45.6C33.9,49.0,35.7,52.3,39.5,55.3C43.2,58.4,47.2,59.9,51.5,59.9C54.0,59.9,56.8,59.4,59.9,58.4C63.0,57.4,65.6,56.2,67.6,54.8C69.4,53.5,70.8,52.9,71.9,52.9C73.2,52.9,74.6,53.8,75.9,55.4C77.2,57.1,77.9,58.9,77.9,60.7C77.9,64.5,75.5,68.2,70.8,71.7C62.3,78.0,52.6,81.1,41.6,81.1C30.5,81.1,21.2,77.9,13.7,71.5C10.1,68.3,7.1,64.5,4.7,60.0C1.6,54.0,.0,47.7,.0,41.1C.0,32.2,2.7,24.2,8.1,17.1C12.7,11.0,18.7,6.4,25.9,3.4C31.3,1.1,37.1,.0,43.4,.0C53.4,.0,62.0,2.9,69.0,8.6C72.5,11.4,75.4,14.8,77.6,18.7C80.1,23.2,81.3,27.5,81.3,31.7C81.3,35.2,80.6,38.0,79.2,40.2C77.7,42.4,75.9,43.5,73.6,43.5zM38.4,28.6L46.4,28.6C49.8,28.6,51.5,27.1,51.5,24.0C51.5,21.1,50.7,18.8,49.0,17.0C47.4,15.2,45.2,14.3,42.6,14.3C39.6,14.3,37.3,15.4,35.6,17.8C34.0,19.9,33.2,22.1,33.2,24.4C33.2,25.9,33.6,27.0,34.4,27.7C35.2,28.3,36.5,28.6,38.4,28.6z" fill-rule="nonzero" id="shape3"/></g></svg>