<svg width="280" height="180" viewBox="0 0 280 180" fill="none" xmlns="http://www.w3.org/2000/svg" data-v-d30c09ae=""><rect width="280" height="180" fill="var(--el-fill-color-light)"></rect><g filter="url(#filter0_d_13239_209025)"><rect x="65" y="52" width="150" height="77" rx="2" fill="var(--el-fill-color-blank)"></rect><rect x="64.7" y="51.7" width="150.6" height="77.6" rx="2.3" stroke="var(--el-border-color-dark)" stroke-width="0.6"></rect></g><rect x="65" y="72" width="150" height="35" fill="var(--el-border-color-light)"></rect><rect x="73" y="60" width="36" height="4" rx="2" fill="var(--el-border-color-dark)"></rect><rect x="73" y="80" width="36" height="4" rx="2" fill="var(--el-color-primary)"></rect><rect x="73" y="95" width="91" height="4" rx="2" fill="var(--el-border-color-dark)"></rect><path d="M202.2 60.3994C202.733 60.9327 203.8 61.9994 203.8 61.9994L202.2 63.5996" stroke="var(--el-border-color-dark)" stroke-width="0.5" stroke-linecap="round" stroke-linejoin="round"></path><path d="M204.6 81.2002C204.067 81.7335 203 82.8002 203 82.8002L201.4 81.2002" stroke="var(--el-color-primary)" stroke-width="0.5" stroke-linecap="round" stroke-linejoin="round"></path><line x1="65" y1="71.75" x2="215" y2="71.75" stroke="var(--el-border-color-dark)" stroke-width="0.5"></line><rect x="73" y="117" width="36" height="4" rx="2" fill="var(--el-border-color-dark)"></rect><path d="M202.2 117.399C202.733 117.933 203.8 118.999 203.8 118.999L202.2 120.6" stroke="var(--el-border-color-dark)" stroke-width="0.5" stroke-linecap="round" stroke-linejoin="round"></path><line x1="65" y1="106.75" x2="215" y2="106.75" stroke="var(--el-border-color-dark)" stroke-width="0.5"></line><defs><filter id="filter0_d_13239_209025" x="51.0666" y="38.0671" width="177.867" height="104.866" filterUnits="userSpaceOnUse" color-interpolation-filters="sRGB"><feFlood flood-opacity="0" result="BackgroundImageFix"></feFlood><feColorMatrix in="SourceAlpha" type="matrix" values="0 0 0 0 0 0 0 0 0 0 0 0 0 0 0 0 0 0 127 0" result="hardAlpha"></feColorMatrix><feOffset></feOffset><feGaussianBlur stdDeviation="6.66667"></feGaussianBlur><feComposite in2="hardAlpha" operator="out"></feComposite><feColorMatrix type="matrix" values="0 0 0 0 0 0 0 0 0 0 0 0 0 0 0 0 0 0 0.05 0"></feColorMatrix><feBlend mode="normal" in2="BackgroundImageFix" result="effect1_dropShadow_13239_209025"></feBlend><feBlend mode="normal" in="SourceGraphic" in2="effect1_dropShadow_13239_209025" result="shape"></feBlend></filter></defs></svg>