<svg xmlns:ev="http://www.w3.org/2001/xml-events" xmlns="http://www.w3.org/2000/svg" xmlns:xlink="http://www.w3.org/1999/xlink" height="87" viewBox="0 0 87 87" width="87"><defs/><g transform="translate(5.5,5.5)" id="page1"><rect fill="#ffffff" height="77" y="0" x="0" width="77"/><g transform="translate(1.000000,1.000000)" id="group1"><g id="group2"><path fill-rule="nonzero" fill="#409eff" transform="translate(0.000000,18.645100)" id="shape3" d="M75.4,18.9C75.4,29.3,58.5,37.7,37.7,37.7C16.9,37.7,.0,29.3,.0,18.9C.0,8.4,16.9,.0,37.7,.0C58.5,.0,75.4,8.4,75.4,18.9z"/><path fill-rule="nonzero" fill="#409eff" transform="translate(13.803000,0.000000)" id="shape4" d="M42.8,73.8C34.6,79.0,19.6,67.0,9.2,46.9C-1.2,26.9,-3.1,6.4,5.1,1.2C13.2,-4.0,28.2,8.0,38.6,28.1C49.0,48.1,50.9,68.6,42.8,73.8z"/><path fill-rule="nonzero" fill="#409eff" transform="translate(13.803000,0.000000)" id="shape5" d="M5.1,73.8C-3.1,68.6,-1.2,48.1,9.2,28.1C19.6,8.0,34.6,-4.0,42.8,1.2C50.9,6.4,49.0,26.9,38.6,46.9C28.2,67.0,13.2,79.0,5.1,73.8z"/></g></g><g transform="translate(7.271561,7.236650)" id="group6"><g transform="translate(2.394994,2.381675)" id="group7"><path fill-rule="nonzero" fill="#ffffff" transform="translate(0.000000,14.360055)" id="shape8" d="M58.1,14.5C58.1,22.5,45.1,29.0,29.0,29.0C13.0,29.0,.0,22.5,.0,14.5C.0,6.5,13.0,.0,29.0,.0C45.1,.0,58.1,6.5,58.1,14.5z"/><path fill-rule="nonzero" fill="#ffffff" transform="translate(10.630826,0.000000)" id="shape9" d="M32.9,56.8C26.7,60.8,15.1,51.6,7.1,36.1C-0.9,20.7,-2.4,4.9,3.9,.9C10.1,-3.1,21.7,6.2,29.7,21.6C37.8,37.1,39.2,52.8,32.9,56.8z"/><path fill-rule="nonzero" fill="#ffffff" transform="translate(10.630826,0.000000)" id="shape10" d="M3.9,56.8C-2.4,52.8,-0.9,37.1,7.1,21.6C15.1,6.2,26.7,-3.1,32.9,.9C39.2,4.9,37.8,20.7,29.7,36.1C21.7,51.6,10.1,60.8,3.9,56.8z"/></g></g><path fill-rule="nonzero" fill="#409eff" transform="translate(25.412303,25.304562)" id="shape11" d="M6.0,2.1C12.1,-1.8,20.3,-0.1,24.3,6.0C24.5,6.3,24.7,6.7,24.9,7.0L24.9,7.1C25.0,7.4,24.9,7.8,24.6,8.0L12.3,16.0C12.0,16.2,11.5,16.1,11.3,15.8L10.7,14.8C10.1,13.9,10.3,12.8,11.2,12.2L19.1,7.1C19.5,6.8,19.6,6.4,19.3,6.1C19.3,6.0,19.3,5.9,19.2,5.9C16.0,3.3,11.6,3.1,8.1,5.3C3.8,8.1,2.6,13.9,5.4,18.3C8.2,22.6,14.0,23.8,18.3,21.0C19.2,20.5,20.4,20.7,21.0,21.6L21.6,22.5C21.8,22.9,21.7,23.3,21.4,23.5C21.1,23.8,20.8,24.0,20.4,24.3C14.3,28.2,6.1,26.5,2.1,20.4C-1.8,14.3,-0.1,6.1,6.0,2.1zM24.4,12.8C24.8,12.6,25.2,12.7,25.4,13.0L26.2,14.2C26.9,15.3,26.6,16.6,25.6,17.3L24.4,18.1C24.0,18.3,23.6,18.2,23.3,17.9L21.7,15.4C21.5,15.1,21.6,14.7,21.9,14.4L24.4,12.8z"/></g></svg>