<svg width="280" height="180" viewBox="0 0 280 180" fill="none" xmlns="http://www.w3.org/2000/svg" data-v-d30c09ae=""><rect width="280" height="180" fill="var(--el-fill-color-light)"></rect><g filter="url(#filter0_d_12403_168960)"><rect x="105" y="66" width="71" height="48" rx="2" fill="var(--el-fill-color-blank)"></rect><rect x="104.7" y="65.7" width="71.6" height="48.6" rx="2.3" stroke="var(--el-border-color-dark)" stroke-width="0.6"></rect></g><path d="M105 68C105 66.8954 105.895 66 107 66H174C175.105 66 176 66.8954 176 68V74H105V68Z" fill="var(--el-border-color-dark)"></path><path d="M120 74L120 114L107 114C105.895 114 105 113.105 105 112L105 74L120 74Z" fill="var(--el-border-color-light)"></path><path d="M176 74L176 112C176 113.105 175.105 114 174 114L120 114L120 74L176 74Z" fill="var(--el-fill-color-blank)"></path><defs><filter id="filter0_d_12403_168960" x="96.4" y="57.4004" width="88.2" height="65.1992" filterUnits="userSpaceOnUse" color-interpolation-filters="sRGB"><feFlood flood-opacity="0" result="BackgroundImageFix"></feFlood><feColorMatrix in="SourceAlpha" type="matrix" values="0 0 0 0 0 0 0 0 0 0 0 0 0 0 0 0 0 0 127 0" result="hardAlpha"></feColorMatrix><feOffset></feOffset><feGaussianBlur stdDeviation="4"></feGaussianBlur><feComposite in2="hardAlpha" operator="out"></feComposite><feColorMatrix type="matrix" values="0 0 0 0 0 0 0 0 0 0 0 0 0 0 0 0 0 0 0.05 0"></feColorMatrix><feBlend mode="normal" in2="BackgroundImageFix" result="effect1_dropShadow_12403_168960"></feBlend><feBlend mode="normal" in="SourceGraphic" in2="effect1_dropShadow_12403_168960" result="shape"></feBlend></filter></defs></svg>