<svg width="280" height="180" viewBox="0 0 280 180" fill="none" xmlns="http://www.w3.org/2000/svg" data-v-d30c09ae=""><rect width="280" height="180" fill="var(--el-fill-color-light)"></rect><g filter="url(#filter0_d_13637_231189)"><rect x="90" y="45" width="100" height="114" rx="2" fill="var(--el-fill-color-blank)"></rect><rect x="89.7" y="44.7" width="100.6" height="114.6" rx="2.3" stroke="var(--el-border-color-dark)" stroke-width="0.6"></rect></g><rect x="98" y="143" width="24" height="4" rx="2" fill="var(--el-border-color-dark)"></rect><rect x="98" y="125" width="24" height="4" rx="2" fill="var(--el-border-color-dark)"></rect><rect x="108" y="71" width="24" height="4" rx="2" fill="var(--el-border-color-dark)"></rect><rect x="90" y="83" width="100" height="16" fill="var(--el-color-primary)"></rect><rect x="108" y="89" width="24" height="4" rx="2" fill="white"></rect><rect x="108" y="107" width="24" height="4" rx="2" fill="var(--el-border-color-dark)"></rect><rect x="98" y="53" width="24" height="4" rx="2" fill="var(--el-color-primary)"></rect><path d="M180.4 55.7998C180.933 55.2665 182 54.1998 182 54.1998L183.6 55.7998" stroke="var(--el-color-primary)" stroke-width="0.5" stroke-linecap="round" stroke-linejoin="round"></path><defs><filter id="filter0_d_13637_231189" x="76.0666" y="31.0671" width="127.867" height="141.866" filterUnits="userSpaceOnUse" color-interpolation-filters="sRGB"><feFlood flood-opacity="0" result="BackgroundImageFix"></feFlood><feColorMatrix in="SourceAlpha" type="matrix" values="0 0 0 0 0 0 0 0 0 0 0 0 0 0 0 0 0 0 127 0" result="hardAlpha"></feColorMatrix><feOffset></feOffset><feGaussianBlur stdDeviation="6.66667"></feGaussianBlur><feComposite in2="hardAlpha" operator="out"></feComposite><feColorMatrix type="matrix" values="0 0 0 0 0 0 0 0 0 0 0 0 0 0 0 0 0 0 0.05 0"></feColorMatrix><feBlend mode="normal" in2="BackgroundImageFix" result="effect1_dropShadow_13637_231189"></feBlend><feBlend mode="normal" in="SourceGraphic" in2="effect1_dropShadow_13637_231189" result="shape"></feBlend></filter></defs></svg>