<svg width="280" height="180" viewBox="0 0 280 180" fill="none" xmlns="http://www.w3.org/2000/svg" data-v-d30c09ae=""><rect width="280" height="180" fill="var(--el-fill-color-light)"></rect><path d="M100.125 80.75L93.875 80.75L97 84.5L100.125 80.75Z" fill="var(--el-color-primary)"></path><rect x="108" y="77" width="10" height="10" rx="2" fill="var(--el-color-primary)"></rect><rect x="110.5" y="81.5" width="5" height="1" fill="white"></rect><rect x="124" y="93" width="10" height="10" rx="2" fill="var(--el-color-primary)"></rect><path fill-rule="evenodd" clip-rule="evenodd" d="M132.206 96.8165L131.54 95.9766L128.208 98.6153L126.983 97.0679L126.143 97.733L128.032 100.119L128.034 100.117L128.036 100.119L132.206 96.8165Z" fill="white"></path><rect x="124.5" y="109.5" width="9" height="9" rx="1.5" fill="var(--el-fill-color-blank)"></rect><rect x="124.5" y="109.5" width="9" height="9" rx="1.5" stroke="var(--el-border-color-dark)"></rect><rect x="108.5" y="61.5" width="9" height="9" rx="1.5" fill="var(--el-fill-color-blank)"></rect><rect x="108.5" y="61.5" width="9" height="9" rx="1.5" stroke="var(--el-border-color-dark)"></rect><path d="M95.75 62.875V69.125L99.5 66L95.75 62.875Z" fill="var(--el-border-color-dark)"></path><rect x="126" y="80" width="46" height="4" rx="2" fill="var(--el-border-color-dark)"></rect><rect x="142" y="96" width="46" height="4" rx="2" fill="var(--el-color-primary)"></rect><rect x="142" y="112" width="46" height="4" rx="2" fill="var(--el-border-color-dark)"></rect><rect x="126" y="64" width="46" height="4" rx="2" fill="var(--el-border-color-dark)"></rect></svg>